<svg width="16" height="16" viewBox="0 0 16 16" fill="none" xmlns="http://www.w3.org/2000/svg">
<path fill-rule="evenodd" clip-rule="evenodd" d="M7.50838 1.45455L7.20156 2.30012C6.90469 3.11822 6.25751 3.68745 5.59745 4.02507C5.5505 4.04908 5.50402 4.07378 5.458 4.09915C4.80882 4.45716 3.94733 4.68808 3.02652 4.51499L2.07507 4.33613L2.39251 2.91112L3.34397 3.08997C3.7915 3.1741 4.25137 3.06805 4.64302 2.85207C4.70376 2.81857 4.76514 2.78596 4.82715 2.75425C5.22578 2.55035 5.55511 2.23777 5.6994 1.84015L6.00623 0.994578C6.22175 0.400626 6.82684 0 7.50838 0H8.49166C9.17321 0 9.77829 0.400625 9.99381 0.994577L10.3006 1.84015C10.4449 2.23777 10.7743 2.55035 11.1729 2.75425C11.2349 2.78596 11.2963 2.81857 11.357 2.85207C11.7487 3.06805 12.2085 3.17409 12.6561 3.08997L13.6075 2.91112C14.2752 2.7856 14.9554 3.06666 15.2962 3.60886L15.7878 4.39109C16.1286 4.9333 16.0535 5.61498 15.6013 6.08341L14.9561 6.75182C14.6537 7.06505 14.523 7.48277 14.5302 7.90137C14.5314 7.96709 14.5314 8.03287 14.5302 8.0986C14.523 8.51719 14.6537 8.93491 14.9561 9.24813L15.6013 9.91654C16.0535 10.385 16.1286 11.0667 15.7878 11.6089L15.2962 12.3911C14.9554 12.9333 14.2752 13.2144 13.6075 13.0888L12.6561 12.91C12.2086 12.8259 11.7487 12.9319 11.3571 13.1479C11.2963 13.1814 11.2349 13.214 11.1729 13.2458C10.7743 13.4497 10.4449 13.7622 10.3006 14.1599L9.99382 15.0054C9.77829 15.5994 9.17321 16 8.49166 16H7.50838C6.82684 16 6.22175 15.5994 6.00623 15.0054L5.6994 14.1599C5.55511 13.7622 5.22578 13.4497 4.82715 13.2458C4.76513 13.214 4.70373 13.1814 4.64297 13.1479C4.25132 12.9319 3.79144 12.8259 3.3439 12.91L2.39251 13.0888C1.7248 13.2144 1.04457 12.9333 0.703792 12.3911L0.212156 11.6089C-0.128619 11.0667 -0.0534692 10.385 0.398719 9.91654L1.58343 10.8816L2.07507 11.6638L3.02646 11.485C3.94728 11.3119 4.80878 11.5428 5.45797 11.9008C5.50399 11.9262 5.55049 11.9509 5.59745 11.9749C6.25751 12.3125 6.90469 12.8818 7.20156 13.6999L7.50838 14.5455L8.49166 14.5455L8.79848 13.6999C9.09535 12.8818 9.74253 12.3125 10.4026 11.9749C10.4495 11.9509 10.496 11.9262 10.5421 11.9008C11.1913 11.5428 12.0528 11.3119 12.9736 11.485L13.9249 11.6638L14.4166 10.8816L13.7713 10.2132C13.15 9.56956 12.935 8.77134 12.947 8.07556C12.9479 8.02519 12.9479 7.97478 12.947 7.92442C12.935 7.22863 13.15 6.4304 13.7713 5.78677L14.4166 5.11837L13.9249 4.33613L12.9735 4.51498C12.0527 4.68808 11.1912 4.45715 10.542 4.09915C10.496 4.07378 10.4495 4.04908 10.4026 4.02507C9.74253 3.68745 9.09535 3.11822 8.79848 2.30012L8.49166 1.45454L7.50838 1.45455ZM0.398719 9.91654L1.58343 10.8816L2.22869 10.2131C2.84999 9.56952 3.06501 8.77131 3.05302 8.07553C3.05215 8.02519 3.05215 7.97479 3.05302 7.92444C3.06502 7.22866 2.85 6.43044 2.2287 5.78681L1.58343 5.11837L2.07507 4.33613L2.39251 2.91112C1.7248 2.7856 1.04457 3.06666 0.703792 3.60886L0.212156 4.39109C-0.128619 4.93329 -0.05347 5.61498 0.398718 6.08341L1.04398 6.75186C1.34635 7.06509 1.47702 7.48281 1.4698 7.9014C1.46867 7.9671 1.46867 8.03286 1.4698 8.09857C1.47702 8.51715 1.34634 8.93487 1.04398 9.24809L0.398719 9.91654Z" fill="#FCFCFC"/>
</svg>
